<svg width="99" height="169" viewBox="0 0 99 169" fill="none" xmlns="http://www.w3.org/2000/svg">
<path fill-rule="evenodd" clip-rule="evenodd" d="M62.6016 25.7116L50.9756 19.0159V25.1759L62.6016 31.8717V25.7116Z" fill="#4F4B6A"/>
<path fill-rule="evenodd" clip-rule="evenodd" d="M49.008 31.7823L67.6097 42.4955V38.9244L49.008 28.3005L30.4958 38.9244V42.4955L49.008 31.7823Z" fill="#F58220"/>
<path fill-rule="evenodd" clip-rule="evenodd" d="M47.13 36.8711L35.4146 43.9239V138.11L47.13 144.806V36.8711Z" fill="#F58220"/>
<path fill-rule="evenodd" clip-rule="evenodd" d="M62.6016 43.9239L50.9756 37.2281V134.271V144.806L66.626 135.789L71.187 133.111L93.3658 120.344V94.8113V69.1891L71.187 56.4225L66.626 53.7443V67.225L81.7398 75.974V94.8113V113.649L66.626 122.308L65.374 123.023L62.6016 124.63V43.9239Z" fill="#4F4B6A"/>
<path fill-rule="evenodd" clip-rule="evenodd" d="M16.3658 94.8113V75.9741L31.3902 67.225V53.7443L26.8293 56.4226L4.65039 69.1891V94.8113V120.344L26.8293 133.111L31.3902 135.789V122.308L16.3658 113.649V94.8113Z" fill="#4F4B6A"/>
<path fill-rule="evenodd" clip-rule="evenodd" d="M5.00813 149.627V164.893H8.04878V168.732H0V149.627H5.00813ZM19.8537 161.233H13.6829V164.625C13.6829 165.34 13.7724 165.786 13.8618 165.965C13.9512 166.143 14.1301 166.232 14.4878 166.232C14.8455 166.232 15.1138 166.054 15.2033 165.786C15.2927 165.518 15.3821 164.983 15.3821 164.179V162.126H19.9431V163.286C19.9431 164.268 19.8537 164.983 19.7642 165.518C19.6748 166.054 19.3171 166.59 18.8699 167.215C18.4228 167.839 17.8862 168.286 17.1707 168.554C16.4553 168.821 15.6504 169 14.5772 169C13.5935 169 12.6992 168.821 11.8943 168.554C11.0894 168.286 10.5528 167.839 10.1057 167.393C9.65854 166.857 9.39024 166.322 9.21138 165.697C9.03252 165.072 8.94309 164.179 8.94309 163.019V158.465C8.94309 157.126 9.12195 156.055 9.47968 155.251C9.8374 154.448 10.4634 153.823 11.2683 153.466C12.0732 153.02 13.0569 152.841 14.1301 152.841C15.4715 152.841 16.5447 153.109 17.439 153.645C18.3333 154.18 18.9594 154.805 19.2276 155.698C19.5854 156.501 19.7642 157.751 19.7642 159.269V161.233H19.8537ZM15.1138 158.644V157.483C15.1138 156.68 15.1138 156.144 15.0244 155.876C14.935 155.609 14.7561 155.519 14.4878 155.519C14.1301 155.519 13.9512 155.609 13.8618 155.787C13.7724 155.966 13.7724 156.501 13.7724 157.394V158.555H15.1138V158.644ZM26.4715 150.966V153.466H27.7236V155.966H26.4715V164.358C26.4715 165.429 26.561 165.965 26.6504 166.054C26.7398 166.143 27.187 166.232 27.9919 166.232V168.732H26.0244C24.9512 168.732 24.1463 168.732 23.6992 168.554C23.252 168.464 22.8049 168.286 22.4472 167.929C22.0894 167.572 21.9106 167.215 21.8211 166.768C21.7317 166.322 21.7317 165.34 21.7317 163.822V155.876H20.748V153.377H21.7317V150.877H26.4715V150.966ZM43.0163 158.108H38.813V157.305C38.813 156.591 38.813 156.144 38.7236 155.966C38.6341 155.787 38.4553 155.698 38.0976 155.698C37.8293 155.698 37.6504 155.787 37.4715 155.966C37.3821 156.144 37.2927 156.412 37.2927 156.769C37.2927 157.216 37.2927 157.573 37.3821 157.84C37.4715 158.108 37.6504 158.287 38.0081 158.555C38.3659 158.823 38.9919 159.18 40.065 159.715C41.4959 160.429 42.3902 161.054 42.8374 161.59C43.2846 162.215 43.4634 163.019 43.4634 164.179C43.4634 165.429 43.2846 166.411 42.9268 167.036C42.5691 167.661 42.0325 168.197 41.2276 168.554C40.4228 168.911 39.5285 169.089 38.4553 169.089C37.2033 169.089 36.2195 168.911 35.3252 168.554C34.4309 168.197 33.8943 167.661 33.5366 167.036C33.1789 166.411 33.0894 165.429 33.0894 164.09V163.376H37.2927V164.358C37.2927 165.161 37.3821 165.786 37.4715 165.965C37.561 166.232 37.8293 166.322 38.0976 166.322C38.4553 166.322 38.6341 166.232 38.813 166.054C38.9024 165.875 38.9919 165.518 38.9919 164.983C38.9919 164.268 38.9024 163.733 38.7236 163.554C38.5447 163.376 37.6504 162.84 35.9512 161.858C34.5203 161.054 33.7154 160.34 33.3577 159.715C33.0894 159.09 32.9106 158.287 32.9106 157.394C32.9106 156.144 33.0894 155.251 33.4472 154.627C33.8049 154.002 34.3415 153.555 35.1463 153.287C35.9512 152.93 36.8455 152.841 37.9187 152.841C38.9919 152.841 39.8862 152.93 40.6016 153.198C41.3171 153.466 41.8537 153.823 42.3008 154.269C42.6585 154.716 42.9268 155.073 43.0163 155.43C43.1057 155.787 43.1057 156.412 43.1057 157.126V158.108H43.0163ZM49.0976 149.627H54.0163C55.5366 149.627 56.7886 149.716 57.5935 149.984C58.3984 150.252 59.0244 150.698 59.561 151.502C60.0976 152.216 60.2764 153.466 60.2764 155.073C60.2764 156.234 60.0976 156.948 59.7398 157.394C59.3821 157.84 58.6667 158.198 57.6829 158.376C58.8455 158.644 59.6504 159.09 60.0081 159.626C60.4553 160.251 60.6342 161.144 60.6342 162.394V164.179C60.6342 165.429 60.4553 166.411 60.187 167.036C59.9187 167.661 59.3821 168.107 58.7561 168.286C58.1301 168.554 56.7886 168.643 54.8211 168.643H49.0976V149.627ZM54.0163 152.93V157.216C54.1951 157.216 54.374 157.216 54.5528 157.216C55 157.216 55.3577 157.126 55.4472 156.858C55.5366 156.591 55.626 155.966 55.626 154.805C55.626 154.18 55.5366 153.823 55.4472 153.555C55.3577 153.287 55.1789 153.198 55 153.109C54.9106 152.93 54.5528 152.93 54.0163 152.93ZM54.0163 160.162V165.518C54.7317 165.518 55.1789 165.429 55.3577 165.161C55.5366 164.983 55.626 164.447 55.626 163.733V161.947C55.626 161.144 55.5366 160.608 55.3577 160.429C55.2683 160.251 54.8211 160.162 54.0163 160.162ZM73.2439 153.109V168.732H68.4146L68.5041 167.393C68.1463 167.929 67.7886 168.286 67.252 168.554C66.8049 168.821 66.1789 168.911 65.5528 168.911C64.8374 168.911 64.2114 168.821 63.7642 168.554C63.3171 168.286 62.9594 167.929 62.6911 167.572C62.4228 167.125 62.3333 166.679 62.2439 166.232C62.1545 165.786 62.1545 164.893 62.1545 163.554V153.02H66.8943V163.643C66.8943 164.893 66.8943 165.608 66.9837 165.786C67.0732 166.054 67.252 166.143 67.6098 166.143C67.9675 166.143 68.1463 166.054 68.2358 165.786C68.3252 165.518 68.3252 164.804 68.3252 163.554V153.02H73.2439V153.109ZM79.8618 149.627V152.127H74.9431V149.627H79.8618ZM79.8618 153.109V168.732H74.9431V153.109H79.8618ZM86.4797 149.627V168.732H81.561V149.627H86.4797ZM99 149.627V168.732H94.2602V167.572C93.813 168.018 93.2764 168.375 92.8293 168.643C92.2927 168.911 91.7561 169 91.2195 169C90.5041 169 89.8781 168.821 89.252 168.375C88.7155 168.018 88.3577 167.572 88.1789 167.036C88 166.5 87.9106 165.697 87.9106 164.536V157.216C87.9106 156.055 88 155.162 88.1789 154.627C88.3577 154.091 88.7155 153.644 89.252 153.287C89.7886 152.93 90.5041 152.752 91.2195 152.752C91.8455 152.752 92.3821 152.841 92.8293 153.109C93.2764 153.287 93.7236 153.645 94.1707 154.091V149.627H99ZM94.2602 157.037C94.2602 156.501 94.1707 156.055 94.0813 155.876C93.9919 155.698 93.813 155.609 93.4553 155.609C93.187 155.609 93.0081 155.698 92.9187 155.876C92.8293 156.055 92.7398 156.412 92.7398 157.037V164.715C92.7398 165.34 92.8293 165.786 92.9187 165.965C93.0081 166.143 93.187 166.232 93.4553 166.232C93.7236 166.232 93.9919 166.143 94.0813 165.875C94.1707 165.697 94.2602 165.072 94.2602 164.268V157.037Z" fill="#4F4B6A"/>
<path fill-rule="evenodd" clip-rule="evenodd" d="M28.9756 155.787L28.3496 152.573V149.627H32.0163V152.573L31.4797 155.787H28.9756Z" fill="#F58220"/>
<path fill-rule="evenodd" clip-rule="evenodd" d="M58.9349 14.6413L50.9756 10.0883V19.4623L58.9349 24.0154V14.6413Z" fill="#4F4B6A"/>
<path fill-rule="evenodd" clip-rule="evenodd" d="M47.13 18.748L35.4146 25.7116V31.8717L47.13 25.1759V18.748Z" fill="#F58220"/>
<path fill-rule="evenodd" clip-rule="evenodd" d="M47.13 9.90967L39.1707 14.6413V24.0153L47.13 19.4622V9.90967Z" fill="#F58220"/>
<path fill-rule="evenodd" clip-rule="evenodd" d="M47.1302 0L42.748 2.58901V12.9451L47.1302 10.356V0Z" fill="#F58220"/>
<path fill-rule="evenodd" clip-rule="evenodd" d="M55.2683 2.58897L50.9756 0.0892334V10.356L55.2683 12.945V2.58897Z" fill="#4F4B6A"/>
</svg>
